<?xml version="1.0" encoding="iso-8859-1"?>
<!-- Generator: Adobe Illustrator 18.0.0, SVG Export Plug-In . SVG Version: 6.00 Build 0)  -->
<!DOCTYPE svg PUBLIC "-//W3C//DTD SVG 1.1//EN" "http://www.w3.org/Graphics/SVG/1.1/DTD/svg11.dtd">
<svg version="1.1" id="Capa_1" xmlns="http://www.w3.org/2000/svg" xmlns:xlink="http://www.w3.org/1999/xlink" x="0px" y="0px"
	 viewBox="0 0 206.214 206.214" style="enable-background:new 0 0 206.214 206.214;" xml:space="preserve">
<g>
	<path d="M121.518,93.165H47.803c-2.209,0-4,1.791-4,4s1.791,4,4,4h73.715c2.209,0,4-1.791,4-4S123.727,93.165,121.518,93.165z"/>
	<path d="M121.518,111.048H47.803c-2.209,0-4,1.791-4,4s1.791,4,4,4h73.715c2.209,0,4-1.791,4-4S123.727,111.048,121.518,111.048z"
		/>
	<path d="M121.518,128.931H47.803c-2.209,0-4,1.791-4,4s1.791,4,4,4h73.715c2.209,0,4-1.791,4-4S123.727,128.931,121.518,128.931z"
		/>
	<path d="M121.518,146.814H47.803c-2.209,0-4,1.791-4,4s1.791,4,4,4h73.715c2.209,0,4-1.791,4-4S123.727,146.814,121.518,146.814z"
		/>
	<path d="M188.05,45.948C188.05,20.612,167.437,0,142.101,0c-23.129,0-42.312,17.181-45.48,39.448H24.664c-3.59,0-6.5,2.91-6.5,6.5
		v153.766c0,3.59,2.91,6.5,6.5,6.5h117.437c3.59,0,6.5-2.91,6.5-6.5V91.428C170.869,88.26,188.05,69.077,188.05,45.948z
		 M31.164,193.214V52.448h65.457c1.224,8.603,4.833,16.447,10.143,22.833H47.803c-2.209,0-4,1.791-4,4s1.791,4,4,4h67.562
		c5.869,4.215,12.764,7.084,20.236,8.147v101.786H31.164z M142.108,78.896c-0.002,0-0.004,0-0.006,0s-0.004,0-0.006,0
		c-18.165-0.003-32.942-14.783-32.942-32.948c0-18.167,14.781-32.948,32.948-32.948s32.948,14.781,32.948,32.948
		C175.05,64.114,160.272,78.893,142.108,78.896z"/>
	<path d="M151.883,47.948h-7.781V33.831c0-2.209-1.791-4-4-4s-4,1.791-4,4v18.117c0,2.209,1.791,4,4,4h11.781c2.209,0,4-1.791,4-4
		S154.092,47.948,151.883,47.948z"/>
</g>
<g>
</g>
<g>
</g>
<g>
</g>
<g>
</g>
<g>
</g>
<g>
</g>
<g>
</g>
<g>
</g>
<g>
</g>
<g>
</g>
<g>
</g>
<g>
</g>
<g>
</g>
<g>
</g>
<g>
</g>
</svg>
